HIERARCHY
ROOT Hips
{
	OFFSET 0.000000 87.230942 0.000000
	CHANNELS 6 Xposition Yposition Zposition Xrotation Yrotation Zrotation
	JOINT Pelvis
	{
		OFFSET 0.000000 0.000000 0.000000
		CHANNELS 3 Xrotation Yrotation Zrotation
		JOINT LeftUpLeg
		{
			OFFSET 12.017000 -9.376404 -2.439400
			CHANNELS 3 Xrotation Yrotation Zrotation
			JOINT LeftLeg
			{
				OFFSET -0.007312 -32.846973 2.110600
				CHANNELS 3 Xrotation Yrotation Zrotation
				JOINT LeftFoot
				{
					OFFSET 0.007312 -32.065170 -0.570400
					CHANNELS 3 Xrotation Yrotation Zrotation
					JOINT LeftToeBase
					{
						OFFSET 0.728300 -11.045900 13.180700
						CHANNELS 3 Xrotation Yrotation Zrotation
						End Site
						{
							OFFSET 0.000000 17.212589 0.000000
						}
					}
				}
				JOINT LeftPantLeg
				{
					OFFSET 0.002788 -16.709013 -3.143600
					CHANNELS 3 Xrotation Yrotation Zrotation
					End Site
					{
						OFFSET -0.605125 24.528742 0.000000
					}
				}
			}
			JOINT Left_Butt
			{
				OFFSET -6.630234 1.326584 -3.183700
				CHANNELS 3 Xrotation Yrotation Zrotation
				End Site
				{
					OFFSET -0.498041 20.188049 0.000000
				}
			}
		}
		JOINT RightUpLeg
		{
			OFFSET -11.717000 -9.376404 -2.439400
			CHANNELS 3 Xrotation Yrotation Zrotation
			JOINT RightLeg
			{
				OFFSET -0.003241 -32.846912 2.110600
				CHANNELS 3 Xrotation Yrotation Zrotation
				JOINT RightFoot
				{
					OFFSET 0.003241 -32.065136 -0.570500
					CHANNELS 3 Xrotation Yrotation Zrotation
					JOINT RightToeBase
					{
						OFFSET -0.728300 -11.045901 13.180700
						CHANNELS 3 Xrotation Yrotation Zrotation
						End Site
						{
							OFFSET 0.000000 17.212593 0.000000
						}
					}
				}
				JOINT RightPantLeg
				{
					OFFSET 0.008142 -16.708982 -3.143700
					CHANNELS 3 Xrotation Yrotation Zrotation
					End Site
					{
						OFFSET 0.605088 24.528715 0.000000
					}
				}
			}
			JOINT Right_Butt
			{
				OFFSET 6.630732 1.326584 -3.183700
				CHANNELS 3 Xrotation Yrotation Zrotation
				End Site
				{
					OFFSET 0.498015 20.188240 0.000000
				}
			}
		}
	}
	JOINT Spine
	{
		OFFSET -0.062400 7.848404 3.918300
		CHANNELS 3 Xrotation Yrotation Zrotation
		JOINT Spine1
		{
			OFFSET -0.072800 11.422302 0.713400
			CHANNELS 3 Xrotation Yrotation Zrotation
			JOINT Spine2
			{
				OFFSET -0.083200 13.054001 -1.931600
				CHANNELS 3 Xrotation Yrotation Zrotation
				JOINT Neck
				{
					OFFSET -0.092200 14.121796 -5.138800
					CHANNELS 3 Xrotation Yrotation Zrotation
					JOINT Head
					{
						OFFSET 0.000200 10.447403 -0.842000
						CHANNELS 3 Xrotation Yrotation Zrotation
						JOINT Visor
						{
							OFFSET 0.457100 25.671204 16.550400
							CHANNELS 3 Xrotation Yrotation Zrotation
							End Site
							{
								OFFSET 0.000000 26.061493 0.000000
							}
						}
						JOINT HairMidA
						{
							OFFSET 0.459400 31.585403 8.437400
							CHANNELS 3 Xrotation Yrotation Zrotation
							End Site
							{
								OFFSET 0.000000 26.061493 0.000000
							}
						}
						JOINT HairMidB
						{
							OFFSET 0.464000 33.309204 -8.389700
							CHANNELS 3 Xrotation Yrotation Zrotation
							End Site
							{
								OFFSET 0.000000 26.061493 0.000000
							}
						}
						JOINT HairMidC
						{
							OFFSET 0.466600 27.991196 -17.375099
							CHANNELS 3 Xrotation Yrotation Zrotation
							End Site
							{
								OFFSET 0.000000 26.061493 0.000000
							}
						}
						JOINT HairMidD
						{
							OFFSET 0.467700 17.888092 -21.169500
							CHANNELS 3 Xrotation Yrotation Zrotation
							End Site
							{
								OFFSET 0.000000 26.061493 0.000000
							}
						}
						JOINT HairMidE
						{
							OFFSET 5.325700 3.514603 -14.369699
							CHANNELS 3 Xrotation Yrotation Zrotation
							End Site
							{
								OFFSET 0.000000 26.061493 0.000000
							}
						}
						JOINT HairMidF
						{
							OFFSET -4.394100 3.514603 -14.372400
							CHANNELS 3 Xrotation Yrotation Zrotation
							End Site
							{
								OFFSET 0.000000 26.061493 0.000000
							}
						}
						JOINT HairLeftA
						{
							OFFSET 15.319900 25.746506 2.623300
							CHANNELS 3 Xrotation Yrotation Zrotation
							End Site
							{
								OFFSET 0.000000 26.061493 0.000000
							}
						}
						JOINT HairLeftB
						{
							OFFSET 12.619500 29.289398 -8.731499
							CHANNELS 3 Xrotation Yrotation Zrotation
							End Site
							{
								OFFSET 0.000000 26.061493 0.000000
							}
						}
						JOINT HairLeftC
						{
							OFFSET 15.714800 15.959900 2.909800
							CHANNELS 3 Xrotation Yrotation Zrotation
							End Site
							{
								OFFSET 0.000000 26.061493 0.000000
							}
						}
						JOINT HairLeftD
						{
							OFFSET 16.101700 18.437408 -7.553200
							CHANNELS 3 Xrotation Yrotation Zrotation
							End Site
							{
								OFFSET 0.000000 26.061493 0.000000
							}
						}
						JOINT HairLeftE
						{
							OFFSET 9.731900 17.915009 -18.316799
							CHANNELS 3 Xrotation Yrotation Zrotation
							End Site
							{
								OFFSET 0.000000 26.061493 0.000000
							}
						}
						JOINT HairLeftF
						{
							OFFSET 11.204300 4.953598 -9.668100
							CHANNELS 3 Xrotation Yrotation Zrotation
							End Site
							{
								OFFSET 0.000000 26.061493 0.000000
							}
						}
						JOINT HairRightA
						{
							OFFSET -14.397900 25.746307 2.615100
							CHANNELS 3 Xrotation Yrotation Zrotation
							End Site
							{
								OFFSET 0.000000 26.061493 0.000000
							}
						}
						JOINT HairRightB
						{
							OFFSET -11.691200 29.289200 -8.738199
							CHANNELS 3 Xrotation Yrotation Zrotation
							End Site
							{
								OFFSET 0.000000 26.061493 0.000000
							}
						}
						JOINT HairRightC
						{
							OFFSET -14.792900 15.959702 2.901400
							CHANNELS 3 Xrotation Yrotation Zrotation
							End Site
							{
								OFFSET 0.000000 26.061493 0.000000
							}
						}
						JOINT HairRightD
						{
							OFFSET -15.174000 18.437195 -7.561900
							CHANNELS 3 Xrotation Yrotation Zrotation
							End Site
							{
								OFFSET 0.000000 26.061493 0.000000
							}
						}
						JOINT HairRightE
						{
							OFFSET -8.798200 17.914902 -18.322001
							CHANNELS 3 Xrotation Yrotation Zrotation
							End Site
							{
								OFFSET 0.000000 26.061493 0.000000
							}
						}
						JOINT HairRightF
						{
							OFFSET -10.275200 4.953506 -9.674099
							CHANNELS 3 Xrotation Yrotation Zrotation
							End Site
							{
								OFFSET 0.000000 26.061493 0.000000
							}
						}
					}
				}
				JOINT LeftShoulder
				{
					OFFSET 5.133500 7.341202 -1.867600
					CHANNELS 3 Xrotation Yrotation Zrotation
					JOINT LeftArm
					{
						OFFSET 8.072663 0.936867 -2.176600
						CHANNELS 3 Xrotation Yrotation Zrotation
						JOINT LeftForeArm
						{
							OFFSET 31.271999 0.000000 0.000000
							CHANNELS 3 Xrotation Yrotation Zrotation
							JOINT LeftHand
							{
								OFFSET 31.771030 0.000000 0.000000
								CHANNELS 3 Xrotation Yrotation Zrotation
								JOINT LeftHandThumb1
								{
									OFFSET 2.886520 -2.557846 4.416640
									CHANNELS 3 Xrotation Yrotation Zrotation
									JOINT LeftHandThumb2
									{
										OFFSET 2.371025 -1.368912 1.368911
										CHANNELS 3 Xrotation Yrotation Zrotation
										JOINT LeftHandThumb3
										{
											OFFSET 2.243378 -1.295212 1.295213
											CHANNELS 3 Xrotation Yrotation Zrotation
											End Site
											{
												OFFSET -0.332611 2.876945 0.020015
											}
										}
									}
								}
								JOINT LeftHandIndex1
								{
									OFFSET 8.568985 -0.641945 3.119977
									CHANNELS 3 Xrotation Yrotation Zrotation
									JOINT LeftHandIndex2
									{
										OFFSET 3.348503 0.000000 0.000000
										CHANNELS 3 Xrotation Yrotation Zrotation
										JOINT LeftHandIndex3
										{
											OFFSET 3.314552 0.000000 0.000000
											CHANNELS 3 Xrotation Yrotation Zrotation
											End Site
											{
												OFFSET -1.032898 3.075485 0.678796
											}
										}
									}
								}
								JOINT LeftHandMiddle1
								{
									OFFSET 8.124603 0.000000 0.000000
									CHANNELS 3 Xrotation Yrotation Zrotation
									JOINT LeftHandMiddle2
									{
										OFFSET 4.166275 0.000000 0.000000
										CHANNELS 3 Xrotation Yrotation Zrotation
										JOINT LeftHandMiddle3
										{
											OFFSET 3.018135 0.000000 0.000000
											CHANNELS 3 Xrotation Yrotation Zrotation
											End Site
											{
												OFFSET -1.032700 2.767982 0.617226
											}
										}
									}
								}
								JOINT LeftHandRing1
								{
									OFFSET 8.571686 -0.031357 -2.884048
									CHANNELS 3 Xrotation Yrotation Zrotation
									JOINT LeftHandRing2
									{
										OFFSET 3.671181 0.000000 0.000000
										CHANNELS 3 Xrotation Yrotation Zrotation
										JOINT LeftHandRing3
										{
											OFFSET 2.728851 0.000000 0.000000
											CHANNELS 3 Xrotation Yrotation Zrotation
											End Site
											{
												OFFSET -0.815796 2.539223 0.577389
											}
										}
									}
								}
								JOINT LeftHandPinky1
								{
									OFFSET 7.854515 -0.675232 -5.213020
									CHANNELS 3 Xrotation Yrotation Zrotation
									JOINT LeftHandPinky2
									{
										OFFSET 3.068596 0.000000 0.000000
										CHANNELS 3 Xrotation Yrotation Zrotation
										JOINT LeftHandPinky3
										{
											OFFSET 2.396042 0.000000 0.000000
											CHANNELS 3 Xrotation Yrotation Zrotation
											End Site
											{
												OFFSET -0.524597 2.267998 0.567429
											}
										}
									}
								}
							}
							JOINT LeftSleeve
							{
								OFFSET 19.684509 -0.200119 0.476146
								CHANNELS 3 Xrotation Yrotation Zrotation
								End Site
								{
									OFFSET -0.031017 25.731133 -0.002868
								}
							}
						}
					}
				}
				JOINT RightShoulder
				{
					OFFSET -4.395900 7.341202 -1.870200
					CHANNELS 3 Xrotation Yrotation Zrotation
					JOINT RightArm
					{
						OFFSET -8.071453 0.936867 -2.181100
						CHANNELS 3 Xrotation Yrotation Zrotation
						JOINT RightForeArm
						{
							OFFSET -31.272011 0.000000 0.000000
							CHANNELS 3 Xrotation Yrotation Zrotation
							JOINT RightHand
							{
								OFFSET -31.771019 0.000000 0.000000
								CHANNELS 3 Xrotation Yrotation Zrotation
								JOINT RightHandThumb1
								{
									OFFSET -2.886520 -2.557808 4.416626
									CHANNELS 3 Xrotation Yrotation Zrotation
									JOINT RightHandThumb2
									{
										OFFSET -2.371056 -1.368927 1.368928
										CHANNELS 3 Xrotation Yrotation Zrotation
										JOINT RightHandThumb3
										{
											OFFSET -2.243362 -1.295204 1.295206
											CHANNELS 3 Xrotation Yrotation Zrotation
											End Site
											{
												OFFSET 0.332642 2.876938 0.020047
											}
										}
									}
								}
								JOINT RightHandIndex1
								{
									OFFSET -8.568993 -0.641953 3.120017
									CHANNELS 3 Xrotation Yrotation Zrotation
									JOINT RightHandIndex2
									{
										OFFSET -3.348518 0.000000 0.000000
										CHANNELS 3 Xrotation Yrotation Zrotation
										JOINT RightHandIndex3
										{
											OFFSET -3.314552 0.000000 0.000000
											CHANNELS 3 Xrotation Yrotation Zrotation
											End Site
											{
												OFFSET 1.032898 3.075478 0.678804
											}
										}
									}
								}
								JOINT RightHandMiddle1
								{
									OFFSET -8.124588 0.000000 0.000000
									CHANNELS 3 Xrotation Yrotation Zrotation
									JOINT RightHandMiddle2
									{
										OFFSET -4.166275 0.000000 0.000000
										CHANNELS 3 Xrotation Yrotation Zrotation
										JOINT RightHandMiddle3
										{
											OFFSET -3.018097 0.000000 0.000000
											CHANNELS 3 Xrotation Yrotation Zrotation
											End Site
											{
												OFFSET 1.032700 2.767937 0.617197
											}
										}
									}
								}
								JOINT RightHandRing1
								{
									OFFSET -8.571747 -0.031349 -2.884061
									CHANNELS 3 Xrotation Yrotation Zrotation
									JOINT RightHandRing2
									{
										OFFSET -3.671204 0.000000 0.000000
										CHANNELS 3 Xrotation Yrotation Zrotation
										JOINT RightHandRing3
										{
											OFFSET -2.728874 0.000000 0.000000
											CHANNELS 3 Xrotation Yrotation Zrotation
											End Site
											{
												OFFSET 0.815804 2.539261 0.577413
											}
										}
									}
								}
								JOINT RightHandPinky1
								{
									OFFSET -7.854561 -0.675247 -5.212970
									CHANNELS 3 Xrotation Yrotation Zrotation
									JOINT RightHandPinky2
									{
										OFFSET -3.068550 0.000000 0.000000
										CHANNELS 3 Xrotation Yrotation Zrotation
										JOINT RightHandPinky3
										{
											OFFSET -2.395981 0.000000 0.000000
											CHANNELS 3 Xrotation Yrotation Zrotation
											End Site
											{
												OFFSET 0.524605 2.267952 0.567413
											}
										}
									}
								}
							}
							JOINT RightSleeve
							{
								OFFSET -19.684753 -0.200165 0.476065
								CHANNELS 3 Xrotation Yrotation Zrotation
								End Site
								{
									OFFSET 0.031342 25.731255 -0.002917
								}
							}
						}
					}
				}
				JOINT Hood
				{
					OFFSET 0.369700 14.447800 -5.317800
					CHANNELS 3 Xrotation Yrotation Zrotation
					JOINT Hood1
					{
						OFFSET 0.001700 -5.553802 -5.895100
						CHANNELS 3 Xrotation Yrotation Zrotation
						JOINT Hood2
						{
							OFFSET -0.000200 -8.380501 0.763600
							CHANNELS 3 Xrotation Yrotation Zrotation
							End Site
							{
								OFFSET 0.000000 8.415215 0.000000
							}
						}
					}
				}
				JOINT Left_Breast
				{
					OFFSET 5.682500 3.120102 3.188800
					CHANNELS 3 Xrotation Yrotation Zrotation
					End Site
					{
						OFFSET 0.000000 10.528564 0.000000
					}
				}
				JOINT Right_Breast
				{
					OFFSET -4.947600 3.120102 3.185900
					CHANNELS 3 Xrotation Yrotation Zrotation
					End Site
					{
						OFFSET 0.000000 10.528564 0.000000
					}
				}
				JOINT Whistle
				{
					OFFSET 0.368200 11.471298 0.095400
					CHANNELS 3 Xrotation Yrotation Zrotation
					JOINT Whistle1
					{
						OFFSET -0.002000 -6.349899 7.479800
						CHANNELS 3 Xrotation Yrotation Zrotation
						JOINT Whistle2
						{
							OFFSET -0.001300 -8.217598 4.717600
							CHANNELS 3 Xrotation Yrotation Zrotation
							End Site
							{
								OFFSET 0.000000 9.475479 0.000000
							}
						}
					}
				}
			}
		}
		JOINT Belly
		{
			OFFSET 0.212400 1.593002 3.163700
			CHANNELS 3 Xrotation Yrotation Zrotation
			End Site
			{
				OFFSET 0.000000 7.496635 0.000000
			}
		}
	}
	JOINT FitGrandmaFacialAnim_Joint
	{
		OFFSET 1.150000 -86.211197 -1.220100
		CHANNELS 3 Xrotation Yrotation Zrotation
		End Site
		{
			OFFSET 0.000000 31.666618 0.000000
		}
	}
}
MOTION
Frames: 4
Frame Time: 0.016667
0.233019 71.656876 -3.974851 -11.643054 4.176609 0.327187 -0.000001 -0.000001 -0.000000 -30.006947 -2.294334 14.920244 72.996103 -1.096787 0.488178 -31.092701 -2.903531 -11.968286 0.000000 0.000001 -0.000000 0.000000 0.000001 0.000001 0.000000 0.000001 -0.000001 -25.712683 -7.356231 -19.383684 73.937645 0.748354 -0.549680 -35.593933 -2.904488 11.508595 0.000000 -0.000000 -0.000000 -0.000001 0.000001 0.000001 0.000006 -0.000001 0.000002 23.956313 0.120474 0.838893 13.992116 -0.012111 0.874928 13.993084 -0.019273 0.870006 17.101298 -1.158555 -1.120069 -9.419545 -3.200687 0.179589 0.000001 0.000000 -0.000000 0.000001 0.000000 -0.000000 0.000001 0.000000 -0.000000 0.000001 0.000000 -0.000000 0.000001 0.000000 -0.000000 0.000001 0.000000 -0.000000 0.000001 0.000000 -0.000000 0.000001 0.000000 -0.000000 0.000001 0.000000 -0.000000 0.000001 0.000000 -0.000000 0.000001 0.000000 -0.000000 0.000001 0.000000 -0.000000 0.000001 0.000000 -0.000000 0.000001 0.000000 -0.000000 0.000001 0.000000 -0.000000 0.000001 0.000000 -0.000000 0.000001 0.000000 -0.000000 0.000001 0.000000 -0.000000 0.000001 0.000000 -0.000000 1.274369 -20.464773 -8.784590 -24.361982 0.125583 -58.409524 -134.037340 -77.572439 -130.766485 -10.954479 -21.976270 17.417628 20.303033 9.934839 -19.709484 3.939277 33.659486 6.068786 0.000001 -0.000000 0.000001 11.348442 7.907804 -58.203689 11.226002 12.103220 -91.045575 0.000002 -0.000001 0.000002 -3.306180 14.721225 -56.170178 18.751046 6.507045 -95.555569 -0.000002 -0.000002 -0.000000 -8.496643 16.099260 -73.492214 10.309657 4.265413 -84.428364 0.000000 -0.000003 -0.000002 -15.187878 25.468987 -80.134067 11.543866 -3.632293 -77.864075 -0.000004 -0.000000 -0.000001 -0.000000 -0.000000 -0.000000 4.281756 6.062523 24.486790 -20.183591 30.543991 38.966909 -101.168537 66.637361 94.218648 -10.108811 25.059862 -19.829310 9.450205 -8.378786 2.091200 9.478073 -37.583027 5.312497 0.000000 0.000002 0.000000 9.382222 -23.801869 56.987178 11.353624 -12.108007 91.751379 0.000000 0.000001 -0.000004 -6.258893 -19.691615 58.403192 17.354319 -6.618584 88.873383 0.000002 0.000001 -0.000003 -12.782181 -20.150853 66.716072 10.303228 -4.268414 84.398291 0.000002 -0.000003 0.000001 -20.835268 -25.749965 77.824282 11.580052 3.626346 78.017324 -0.000003 0.000001 -0.000001 0.000000 -0.000000 -0.000002 0.000006 -0.000000 -0.000000 0.000006 -0.000000 -0.000000 0.000006 -0.000000 -0.000000 0.000006 -0.000000 -0.000000 0.000006 -0.000000 -0.000000 0.000006 -0.000000 -0.000000 -0.000001 -0.000000 -0.000000 -0.000001 -0.000000 -0.000000 0.000001 -0.000000 -0.000000 -0.000001 -0.000001 -0.000000 
0.195868 71.931961 -3.787214 -12.233110 4.201528 0.305664 0.000000 0.000000 -0.000000 -28.730870 -2.340328 14.942958 72.341074 -1.088980 0.484586 -31.108360 -2.755591 -12.044118 -0.000000 0.000000 -0.000000 -0.000000 -0.000000 0.000000 -0.000000 0.000000 0.000003 -24.428491 -7.624106 -19.196025 73.183182 0.768301 -0.541051 -35.557562 -2.965175 11.464671 0.000000 0.000002 0.000000 -0.000001 0.000003 0.000000 0.000001 -0.000000 -0.000001 23.831076 0.110921 0.828757 13.805196 -0.026557 0.877420 13.806106 -0.034361 0.873753 16.072151 -1.248016 -1.155621 -9.382872 -3.306538 0.444387 -0.000005 0.000000 0.000000 -0.000005 0.000000 0.000000 -0.000005 0.000000 0.000000 -0.000005 0.000000 0.000000 -0.000005 0.000000 0.000000 -0.000005 0.000000 0.000000 -0.000005 0.000000 0.000000 -0.000005 0.000000 0.000000 -0.000005 0.000000 0.000000 -0.000005 0.000000 0.000000 -0.000005 0.000000 0.000000 -0.000005 0.000000 0.000000 -0.000005 0.000000 0.000000 -0.000005 0.000000 0.000000 -0.000005 0.000000 0.000000 -0.000005 0.000000 0.000000 -0.000005 0.000000 0.000000 -0.000005 0.000000 0.000000 -0.000005 0.000000 0.000000 1.202842 -20.287499 -9.383891 -23.683041 -0.501263 -58.145052 -129.876539 -77.684577 -126.405806 -10.999902 -21.654338 17.436756 20.302799 9.934893 -19.709095 3.939262 33.659473 6.068791 0.000001 -0.000002 0.000002 11.348440 7.907792 -58.203703 11.226451 12.103479 -91.045616 0.000001 0.000001 -0.000003 -3.306168 14.721225 -56.170188 18.751058 6.507045 -95.555562 -0.000002 -0.000001 0.000004 -8.496650 16.099237 -73.492214 10.309674 4.265614 -84.428399 0.000002 -0.000001 -0.000000 -15.187889 25.468961 -80.134074 11.543869 -3.632283 -77.864088 -0.000002 0.000000 -0.000003 -0.000000 0.000001 0.000001 4.360490 5.935278 25.053793 -19.084836 29.887689 38.977246 -103.118255 67.822904 95.667209 -10.145648 25.283414 -19.500511 9.446293 -8.364347 2.093527 9.477963 -37.583085 5.312452 -0.000000 -0.000000 -0.000000 9.382242 -23.801852 56.987181 11.353651 -12.108331 91.751413 0.000001 0.000000 -0.000001 -6.258503 -19.691502 58.403226 17.354317 -6.618623 88.873363 0.000002 0.000000 -0.000001 -12.782141 -20.150868 66.716072 10.303214 -4.268407 84.398284 0.000003 -0.000000 -0.000001 -20.835229 -25.749992 77.824302 11.580033 3.626354 78.017351 -0.000000 0.000000 -0.000001 -0.000000 0.000000 -0.000001 0.000005 -0.000000 -0.000000 0.000005 -0.000000 -0.000000 0.000005 -0.000000 -0.000000 0.000005 -0.000000 -0.000000 0.000005 -0.000000 -0.000000 0.000005 -0.000000 -0.000000 0.000001 -0.000000 -0.000000 0.000001 -0.000000 -0.000000 -0.000000 -0.000000 0.000000 0.000000 0.000000 -0.000000 
0.144368 72.188988 -3.575145 -12.400010 4.234768 0.310291 -0.000000 -0.000000 0.000000 -27.932557 -2.363873 14.920463 71.666060 -1.071525 0.481101 -31.052202 -2.631084 -12.122257 0.000000 -0.000001 -0.000000 -0.000000 0.000000 0.000001 -0.000002 -0.000000 0.000001 -23.647614 -7.833646 -19.041377 72.495218 0.759002 -0.533762 -35.504939 -3.028268 11.422999 0.000000 0.000000 0.000000 -0.000002 0.000001 0.000000 0.000000 0.000001 0.000001 23.645251 0.087337 0.821025 13.485195 -0.074092 0.867700 13.486086 -0.083624 0.864977 15.039846 -1.249822 -1.288811 -9.417300 -3.318419 0.602191 0.000001 0.000000 0.000000 0.000001 0.000000 0.000000 0.000001 0.000000 0.000000 0.000001 0.000000 0.000000 0.000001 0.000000 0.000000 0.000001 0.000000 0.000000 0.000001 0.000000 0.000000 0.000001 0.000000 0.000000 0.000001 0.000000 0.000000 0.000001 0.000000 0.000000 0.000001 0.000000 0.000000 0.000001 0.000000 0.000000 0.000001 0.000000 0.000000 0.000001 0.000000 0.000000 0.000001 0.000000 0.000000 0.000001 0.000000 0.000000 0.000001 0.000000 0.000000 0.000001 0.000000 0.000000 0.000001 0.000000 0.000000 1.157234 -20.150258 -9.778063 -22.947100 -1.113751 -58.002902 -128.515938 -78.463820 -124.614670 -11.059318 -21.593641 17.251451 20.302577 9.934933 -19.708709 3.939309 33.659510 6.068757 0.000001 -0.000004 0.000002 11.348456 7.907799 -58.203703 11.226842 12.103730 -91.045643 -0.000002 -0.000001 0.000000 -3.306168 14.721247 -56.170188 18.751082 6.507036 -95.555576 -0.000000 0.000000 -0.000001 -8.496642 16.099268 -73.492221 10.309680 4.265860 -84.428460 0.000001 -0.000001 0.000002 -15.187896 25.468990 -80.134040 11.543909 -3.632294 -77.864088 0.000004 0.000000 -0.000003 0.000000 0.000000 -0.000000 4.416301 5.793509 25.390714 -17.739880 29.670168 39.116736 -104.281641 68.988640 96.226020 -10.264628 25.068399 -18.893381 9.441735 -8.346799 2.096321 9.477893 -37.583109 5.312424 0.000000 0.000002 -0.000000 9.382238 -23.801872 56.987192 11.353718 -12.108584 91.751413 -0.000001 0.000001 -0.000004 -6.258169 -19.691415 58.403240 17.354314 -6.618587 88.873376 -0.000001 -0.000001 -0.000002 -12.782159 -20.150848 66.716045 10.303223 -4.268431 84.398305 0.000003 0.000000 0.000001 -20.835229 -25.749958 77.824268 11.580044 3.626370 78.017365 -0.000001 0.000000 -0.000002 -0.000001 -0.000001 0.000001 -0.000001 0.000000 0.000000 -0.000001 0.000000 0.000000 -0.000001 0.000000 0.000000 -0.000001 0.000000 0.000000 -0.000001 0.000000 0.000000 -0.000001 0.000000 0.000000 -0.000001 0.000000 0.000000 -0.000001 0.000000 0.000000 -0.000000 -0.000000 -0.000000 -0.000000 -0.000000 0.000000 
0.081261 72.440475 -3.344837 -12.415120 4.272982 0.332915 0.000000 -0.000000 -0.000000 -27.300082 -2.347102 14.900628 70.970822 -1.080891 0.476825 -30.969720 -2.528206 -12.186656 -0.000000 0.000000 -0.000000 0.000005 0.000001 0.000000 0.000000 0.000001 0.000000 -23.043723 -8.039903 -18.914658 71.831911 0.768201 -0.526282 -35.458715 -3.096403 11.360946 -0.000000 -0.000000 -0.000000 -0.000004 0.000000 0.000001 0.000000 0.000000 -0.000002 23.415048 0.043394 0.819424 13.067818 -0.162274 0.825651 13.068604 -0.171246 0.822490 13.978646 -1.216190 -1.482818 -9.588727 -3.290706 0.698248 -0.000004 -0.000000 -0.000000 -0.000004 -0.000000 -0.000000 -0.000004 -0.000000 -0.000000 -0.000004 -0.000000 -0.000000 -0.000004 -0.000000 -0.000000 -0.000004 -0.000000 -0.000000 -0.000004 -0.000000 -0.000000 -0.000004 -0.000000 -0.000000 -0.000004 -0.000000 -0.000000 -0.000004 -0.000000 -0.000000 -0.000004 -0.000000 -0.000000 -0.000004 -0.000000 -0.000000 -0.000004 -0.000000 -0.000000 -0.000004 -0.000000 -0.000000 -0.000004 -0.000000 -0.000000 -0.000004 -0.000000 -0.000000 -0.000004 -0.000000 -0.000000 -0.000004 -0.000000 -0.000000 -0.000004 -0.000000 -0.000000 1.128240 -20.026955 -10.044966 -22.214348 -1.700938 -57.924615 -130.356660 -79.992321 -125.863311 -11.142054 -21.528970 16.750347 20.302396 9.935010 -19.708362 3.939277 33.659476 6.068778 0.000002 -0.000004 0.000001 11.348440 7.907803 -58.203696 11.227223 12.103976 -91.045677 -0.000000 0.000001 -0.000001 -3.306168 14.721225 -56.170205 18.751043 6.507070 -95.555562 -0.000001 -0.000000 -0.000003 -8.496626 16.099263 -73.492234 10.309707 4.266106 -84.428501 -0.000001 -0.000000 0.000004 -15.187878 25.468975 -80.134088 11.543877 -3.632283 -77.864088 0.000002 -0.000003 -0.000001 0.000000 -0.000000 0.000001 4.462508 5.633526 25.560921 -16.203657 29.709076 39.388198 -105.211927 70.240798 96.452141 -10.509769 24.499106 -18.061341 9.436411 -8.325848 2.099695 9.477761 -37.583147 5.312392 -0.000000 -0.000003 0.000000 9.382267 -23.801894 56.987205 11.353770 -12.108774 91.751413 0.000000 0.000001 -0.000000 -6.257875 -19.691348 58.403302 17.354326 -6.618614 88.873356 0.000000 0.000001 0.000001 -12.782144 -20.150880 66.716065 10.303226 -4.268402 84.398291 -0.000001 -0.000001 0.000003 -20.835229 -25.749986 77.824275 11.580027 3.626369 78.017378 -0.000005 0.000001 -0.000001 -0.000000 -0.000000 0.000000 0.000001 -0.000000 -0.000000 0.000001 -0.000000 -0.000000 0.000001 -0.000000 -0.000000 0.000001 -0.000000 -0.000000 0.000001 -0.000000 -0.000000 0.000001 -0.000000 -0.000000 -0.000001 -0.000000 -0.000000 -0.000001 -0.000000 -0.000000 0.000001 -0.000001 0.000000 0.000000 -0.000000 -0.000000 
